<svg width="100%" height="auto" viewBox="0 0 1200 990" xmlns="http://www.w3.org/2000/svg" font-family="'Segoe UI', Roboto, sans-serif">
    <defs>
      <linearGradient id="bgGrad" x1="0%" y1="0%" x2="100%" y2="100%">
        <stop offset="0%" stop-color="#0f172a"/>
        <stop offset="100%" stop-color="#1e293b"/>
      </linearGradient>
      <linearGradient id="cardGrad" x1="0%" y1="0%" x2="0%" y2="100%">
        <stop offset="0%" stop-color="#334155" stop-opacity="0.6"/>
        <stop offset="100%" stop-color="#334155" stop-opacity="0.3"/>
      </linearGradient>
      <style>
        .title{font-size:14px;fill:#94a3b8;font-weight:600;letter-spacing:0.5px}
        .value{font-size:24px;fill:#f8fafc;font-weight:700}
        .sub{font-size:12px;fill:#cbd5e1}
        .label{font-size:11px;fill:#64748b;font-weight:500}
        .section-title{font-size:16px;fill:#f8fafc;font-weight:bold}
      </style>
    </defs>
    <rect width="100%" height="100%" fill="url(#bgGrad)" rx="12"/><circle cx="1120" cy="80" r="120" fill="#38bdf8" opacity="0.05"/><circle cx="80" cy="910" r="100" fill="#818cf8" opacity="0.05"/><circle cx="55" cy="70" r="35" fill="url(#cardGrad)" stroke="#38bdf8" stroke-width="3"/><text x="55" y="82" text-anchor="middle" font-size="28" font-weight="bold" fill="#38bdf8">M</text><text x="110" y="65" font-size="20" font-weight="bold" fill="#f8fafc">@MangaFan</text><text x="110" y="90" font-size="14" fill="#94a3b8">Total Entries: <tspan fill="#38bdf8" font-weight="bold">150</tspan></text><circle cx="1110" cy="80" r="50" fill="none" stroke="#3b82f6" stroke-width="20" stroke-dasharray="52.35987755982988 261.79938779914943" transform="rotate(-90.0 1110 80)" opacity="0.9"/>
<circle cx="1110" cy="80" r="50" fill="none" stroke="#10b981" stroke-width="20" stroke-dasharray="209.43951023931953 104.7197551196598" transform="rotate(-30.0 1110 80)" opacity="0.9"/>
<circle cx="1110" cy="80" r="50" fill="none" stroke="#f59e0b" stroke-width="20" stroke-dasharray="20.943951023931955 293.21531433504737" transform="rotate(210.0 1110 80)" opacity="0.9"/>
<circle cx="1110" cy="80" r="50" fill="none" stroke="#ef4444" stroke-width="20" stroke-dasharray="20.943951023931955 293.21531433504737" transform="rotate(234.0 1110 80)" opacity="0.9"/><rect x="30" y="190" width="270" height="80" rx="8" fill="url(#cardGrad)"/><text x="165.0" y="216" text-anchor="middle" class="title">CHAPTERS READ</text><text x="165.0" y="250" text-anchor="middle" class="value" fill="#38bdf8">12,543</text><rect x="320" y="190" width="270" height="80" rx="8" fill="url(#cardGrad)"/><text x="455.0" y="216" text-anchor="middle" class="title">VOLUMES READ</text><text x="455.0" y="250" text-anchor="middle" class="value" fill="#818cf8">1,234</text><rect x="610" y="190" width="270" height="80" rx="8" fill="url(#cardGrad)"/><text x="745.0" y="216" text-anchor="middle" class="title">AVG SCORE</text><text x="745.0" y="250" text-anchor="middle" class="value" fill="#facc15">8.5/10</text><rect x="900" y="190" width="270" height="80" rx="8" fill="url(#cardGrad)"/><text x="1035.0" y="216" text-anchor="middle" class="title">REREADS</text><text x="1035.0" y="250" text-anchor="middle" class="value" fill="#4ade80">12</text><text x="30" y="310" class="section-title">TOP GENRES</text><text x="30" y="350" font-size="12" fill="#94a3b8">Action</text><rect x="150" y="340" width="960.0" height="20" rx="4" fill="#38bdf8" opacity="0.8"/><text x="1118.0" y="354" font-size="12" fill="#f8fafc">50</text><text x="30" y="382" font-size="12" fill="#94a3b8">Adventure</text><rect x="150" y="372" width="768.0" height="20" rx="4" fill="#38bdf8" opacity="0.8"/><text x="926.0" y="386" font-size="12" fill="#f8fafc">40</text><text x="30" y="414" font-size="12" fill="#94a3b8">Drama</text><rect x="150" y="404" width="576.0" height="20" rx="4" fill="#38bdf8" opacity="0.8"/><text x="734.0" y="418" font-size="12" fill="#f8fafc">30</text><text x="30" y="470" class="section-title">READING STATUS</text><text x="30" y="509" font-size="12" fill="#94a3b8" width="100">Reading</text><rect x="140" y="499" width="166.66666666666663" height="10" rx="5" fill="#3b82f6"/><text x="314.66666666666663" y="509" font-size="12" fill="#f8fafc">25 (16.7%)</text><text x="30" y="535" font-size="12" fill="#94a3b8" width="100">Completed</text><rect x="140" y="525" width="666.6666666666665" height="10" rx="5" fill="#10b981"/><text x="814.6666666666665" y="535" font-size="12" fill="#f8fafc">100 (66.7%)</text><text x="30" y="561" font-size="12" fill="#94a3b8" width="100">Plan to Read</text><rect x="140" y="551" width="66.66666666666667" height="10" rx="5" fill="#f59e0b"/><text x="214.66666666666669" y="561" font-size="12" fill="#f8fafc">10 (6.7%)</text><text x="30" y="587" font-size="12" fill="#94a3b8" width="100">Dropped</text><rect x="140" y="577" width="66.66666666666667" height="10" rx="5" fill="#ef4444"/><text x="214.66666666666669" y="587" font-size="12" fill="#f8fafc">10 (6.7%)</text><text x="30" y="613" font-size="12" fill="#94a3b8" width="100">Paused</text><rect x="140" y="603" width="33.333333333333336" height="10" rx="5" fill="#8b5cf6"/><text x="181.33333333333334" y="613" font-size="12" fill="#f8fafc">5 (3.3%)</text><rect x="30" y="630" width="366" height="70" rx="8" fill="url(#cardGrad)"/><text x="213.0" y="654" text-anchor="middle" class="title">COMPLETION RATE</text><text x="213.0" y="682" text-anchor="middle" class="value" fill="#38bdf8">66.7%</text><text x="213.0" y="696" text-anchor="middle" class="label">100/150</text><rect x="416" y="630" width="366" height="70" rx="8" fill="url(#cardGrad)"/><text x="599.0" y="654" text-anchor="middle" class="title">SUCCESS RATIO</text><text x="599.0" y="682" text-anchor="middle" class="value" fill="#4ade80">90.9%</text><text x="599.0" y="696" text-anchor="middle" class="label">Completed vs Dropped</text><rect x="802" y="630" width="366" height="70" rx="8" fill="url(#cardGrad)"/><text x="985.0" y="654" text-anchor="middle" class="title">AVG CHAPS/DAY</text><text x="985.0" y="682" text-anchor="middle" class="value" fill="#facc15">5.80</text><text x="985.0" y="696" text-anchor="middle" class="label">Last 30 Days</text><text x="30" y="740" class="section-title">ACTIVITY (LAST 7 DAYS)</text><rect x="30" y="760" width="30" height="30" rx="6" fill="#38bdf8" fill-opacity="0.5"/><text x="45" y="780" text-anchor="middle" font-size="12" fill="#fff" font-weight="bold">5</text>
<rect x="70" y="760" width="30" height="30" rx="6" fill="#38bdf8" fill-opacity="0.6"/><text x="85" y="780" text-anchor="middle" font-size="12" fill="#fff" font-weight="bold">10</text>
<rect x="110" y="760" width="30" height="30" rx="6" fill="#38bdf8" fill-opacity="0.3"/><text x="125" y="780" text-anchor="middle" font-size="12" fill="#fff" font-weight="bold">0</text>
<rect x="150" y="760" width="30" height="30" rx="6" fill="#38bdf8" fill-opacity="0.9"/><text x="165" y="780" text-anchor="middle" font-size="12" fill="#fff" font-weight="bold">25</text>
<rect x="190" y="760" width="30" height="30" rx="6" fill="#38bdf8" fill-opacity="0.7"/><text x="205" y="780" text-anchor="middle" font-size="12" fill="#fff" font-weight="bold">15</text>
<rect x="230" y="760" width="30" height="30" rx="6" fill="#38bdf8" fill-opacity="1.0"/><text x="245" y="780" text-anchor="middle" font-size="12" fill="#fff" font-weight="bold">30</text>
<rect x="270" y="760" width="30" height="30" rx="6" fill="#38bdf8" fill-opacity="0.56"/><text x="285" y="780" text-anchor="middle" font-size="12" fill="#fff" font-weight="bold">8</text><text x="30" y="840" class="section-title">HIGHEST RATED MANGA</text><rect x="30" y="865" width="560" height="45" rx="8" fill="rgba(255,255,255,0.05)" stroke="rgba(255,255,255,0.1)"/><rect x="40" y="873" width="45" height="30" rx="6" fill="#4ade80"/><text x="62" y="887" text-anchor="middle" font-size="16" fill="#fff" font-weight="bold">9.5</text><text x="62" y="900" text-anchor="middle" font-size="8" fill="#fff">SCORE</text><text x="95" y="887" font-size="14" fill="#f8fafc" font-weight="bold">Berserk</text><text x="95" y="903" font-size="11" fill="#94a3b8">Click to view details</text><rect x="30" y="920" width="560" height="45" rx="8" fill="rgba(255,255,255,0.05)" stroke="rgba(255,255,255,0.1)"/><rect x="40" y="928" width="45" height="30" rx="6" fill="#4ade80"/><text x="62" y="942" text-anchor="middle" font-size="16" fill="#fff" font-weight="bold">9.2</text><text x="62" y="955" text-anchor="middle" font-size="8" fill="#fff">SCORE</text><text x="95" y="942" font-size="14" fill="#f8fafc" font-weight="bold">One Piece</text><text x="95" y="958" font-size="11" fill="#94a3b8">Click to view details</text></svg>